<?xml version="1.0" encoding="UTF-8"?>
<svg id="_图层_1" data-name=" 图层 1" xmlns="http://www.w3.org/2000/svg" version="1.1" viewBox="0 0 45 45.7">
  <defs>
    <style>
      .cls-1 {
        fill: #a93c42;
        stroke-width: 0px;
      }
    </style>
  </defs>
  <path class="cls-1" d="M22.5,42.1c-10.8,0-19.6-8.8-19.6-19.6s2-10.2,5.7-13.9c1.4-1.4,3.6-1.4,5,0,1.4,1.4,1.4,3.6,0,5-2.4,2.4-3.7,5.5-3.7,8.9,0,6.9,5.6,12.6,12.6,12.6s12.6-5.6,12.6-12.6-1.3-6.5-3.7-8.9c-1.4-1.4-1.4-3.6,0-5,1.4-1.4,3.6-1.4,5,0,3.7,3.7,5.7,8.6,5.7,13.9,0,10.8-8.8,19.6-19.6,19.6Z"/>
  <path class="cls-1" d="M22.5,26c-2,0-3.5-1.6-3.5-3.5V6.4c0-2,1.6-3.5,3.5-3.5s3.5,1.6,3.5,3.5v16.1c0,2-1.6,3.5-3.5,3.5Z"/>
</svg>