<?xml version="1.0" encoding="UTF-8"?>
<svg id="_图层_1" data-name=" 图层 1" xmlns="http://www.w3.org/2000/svg" version="1.1" viewBox="0 0 45 45.7">
  <defs>
    <style>
      .cls-1 {
        fill: #76a1d6;
      }

      .cls-1, .cls-2 {
        stroke-width: 0px;
      }

      .cls-2 {
        fill: #2e6db6;
      }
    </style>
  </defs>
  <path class="cls-1" d="M14,8.4h16.4v29H14c-2.9,0-5.2-2.3-5.2-5.2V13.6c0-2.9,2.3-5.2,5.2-5.2Z"/>
  <rect class="cls-2" x="26.1" y="4.8" width="4.4" height="36.2" rx="1.2" ry="1.2"/>
  <path class="cls-2" d="M1.5,20.8h7.4v4.2H1.5c-.6,0-1.1-.5-1.1-1.1v-1.9c0-.6.5-1.1,1.1-1.1Z"/>
  <path class="cls-1" d="M30.5,11.5h12.8c.7,0,1.3.6,1.3,1.3v2.2c0,.7-.6,1.3-1.3,1.3h-12.8v-4.9h0Z"/>
  <path class="cls-1" d="M30.5,29.6h12.8c.7,0,1.3.6,1.3,1.3v2.2c0,.7-.6,1.3-1.3,1.3h-12.8v-4.9h0Z"/>
</svg>