<?xml version="1.0" encoding="UTF-8"?>
<svg id="_图层_1" data-name=" 图层 1" xmlns="http://www.w3.org/2000/svg" version="1.1" viewBox="0 0 45 45.7">
  <defs>
    <style>
      .cls-1 {
        fill: #9fa0a0;
      }

      .cls-1, .cls-2, .cls-3, .cls-4, .cls-5 {
        stroke-width: 0px;
      }

      .cls-2 {
        fill: #d59193;
      }

      .cls-3 {
        fill: #4c638c;
      }

      .cls-4 {
        fill: #b13e43;
      }

      .cls-5 {
        fill: #fff;
      }
    </style>
  </defs>
  <path class="cls-2" d="M3.5,6v33.2c0,1.4,1.1,2.6,2.6,2.6h32.5c1.4,0,2.5-1.1,2.5-2.5V13.1c0-1.4-1.1-2.5-2.5-2.5h-7l-6-6c-.6-.6-1.4-1-2.3-1H6c-1.4,0-2.5,1-2.5,2.4Z"/>
  <rect class="cls-4" x="3.5" y="10.6" width="37.6" height="31.2" rx="2.6" ry="2.6"/>
  <rect class="cls-1" x="14.2" y="27.7" width="29" height="12" rx="6" ry="6"/>
  <circle class="cls-3" cx="37.3" cy="33.7" r="4.6"/>
  <g>
    <path class="cls-5" d="M17.5,33.7c0-1,.3-1.7.8-2.2.5-.5,1.2-.8,2-.8s1,.1,1.4.4c.4.3.7.6,1,1.1.2.5.3,1,.3,1.5s-.1,1.1-.4,1.6c-.2.5-.6.8-1,1-.4.2-.9.4-1.4.4s-1-.1-1.4-.4c-.4-.3-.7-.6-1-1.1-.2-.5-.3-.9-.3-1.4ZM18.3,33.8c0,.7.2,1.2.6,1.6.4.4.8.6,1.4.6s1-.2,1.4-.6c.4-.4.6-1,.6-1.7s0-.9-.2-1.2-.4-.6-.7-.8-.6-.3-1-.3c-.5,0-1,.2-1.4.6-.4.4-.6,1-.6,1.8Z"/>
    <path class="cls-5" d="M23.9,36.5v-5.7h.8l3,4.5v-4.5h.7v5.7h-.8l-3-4.5v4.5h-.7Z"/>
  </g>
</svg>