<?xml version="1.0" encoding="UTF-8"?>
<svg id="_图层_1" data-name=" 图层 1" xmlns="http://www.w3.org/2000/svg" version="1.1" viewBox="0 0 45 45.7">
  <defs>
    <style>
      .cls-1 {
        fill: #a93c42;
      }

      .cls-1, .cls-2, .cls-3 {
        stroke-width: 0px;
      }

      .cls-2 {
        fill: #496086;
      }

      .cls-3 {
        fill: #9e9f9f;
      }
    </style>
  </defs>
  <path class="cls-2" d="M22.5,43.5c-.4,0-.8,0-1.1-.2l-17.2-7.9c-1-.4-1.6-1.4-1.6-2.5V12.8c0-1.1.6-2,1.6-2.5L21.6,2.3c.6-.3,1.2-.3,1.8,0l6.1,2.9c.8.4,1.1,1.3.8,2.1-.4.8-1.3,1.1-2.1.8l-5.7-2.7L5.7,13.1v19.5l16.7,7.6,8.5-3.8c.8-.4,1.8,0,2.1.8.4.8,0,1.8-.8,2.1l-8.7,3.9c-.4.2-.7.2-1.1.2Z"/>
  <path class="cls-2" d="M9.8,16.5c-.2,0-.5,0-.7-.1l-5.7-2.6c-.8-.4-1.2-1.3-.8-2.1.4-.8,1.3-1.2,2.1-.8l5.7,2.6c.8.4,1.2,1.3.8,2.1-.3.6-.9.9-1.5.9Z"/>
  <path class="cls-2" d="M22.5,43.6h0c-.9,0-1.6-.7-1.6-1.6v-5.5c0-.9.7-1.6,1.6-1.6h0c.9,0,1.6.7,1.6,1.6v5.5c0,.9-.7,1.6-1.6,1.6Z"/>
  <path class="cls-2" d="M30.6,23c-.4,0-.7-.1-1-.3-.5-.3-.8-.9-.8-1.5v-3.2L11.1,9.8c-.7-.3-.9-1.1-.6-1.7.3-.7,1.1-.9,1.7-.6l18.1,8.3c.6.3,1.1,1,1.1,1.7v2.5l1.5-.7v-3.1L15.1,8c-.7-.3-1-1.1-.6-1.7.3-.7,1.1-1,1.7-.6l18.2,8.4c.7.3,1.1,1,1.1,1.7v4.2c0,.7-.4,1.4-1.1,1.7l-3.1,1.4c-.2.1-.5.2-.7.2ZM29.2,18.2h0,0Z"/>
  <path class="cls-1" d="M35.7,37.6c-.6,0-1.2-.3-1.5-.9-.4-.8,0-1.8.8-2.1l4.2-2V13.3l-6.8-3.1c-.8-.4-1.2-1.3-.8-2.1.4-.8,1.3-1.2,2.1-.8l7.5,3.4c.7.3,1.2,1.1,1.2,1.9v20.7c0,.8-.5,1.5-1.2,1.9l-4.9,2.3c-.2.1-.5.2-.7.2ZM39.9,13.6h0,0Z"/>
  <path class="cls-1" d="M37.4,15.5c-.6,0-1.2-.3-1.5-.9-.4-.8,0-1.8.8-2.1l3.4-1.6c.8-.4,1.8,0,2.1.8.4.8,0,1.8-.8,2.1l-3.4,1.6c-.2,0-.4.1-.7.1Z"/>
  <path class="cls-3" d="M22.5,31.6c-.9,0-1.6-.7-1.6-1.6v-8.3l-7.1-3.3c-.8-.4-1.2-1.3-.8-2.1.4-.8,1.3-1.2,2.1-.8l9,4.1v10.4c0,.9-.7,1.6-1.6,1.6Z"/>
  <path class="cls-3" d="M22.5,22.2c-.6,0-1.2-.3-1.5-.9-.4-.8,0-1.8.8-2.1l2.7-1.3c.8-.4,1.8,0,2.1.8.4.8,0,1.8-.8,2.1l-2.7,1.3c-.2.1-.4.1-.7.1Z"/>
</svg>