<?xml version="1.0" encoding="UTF-8"?>
<svg id="_图层_1" data-name="图层 1" xmlns="http://www.w3.org/2000/svg" version="1.1" viewBox="0 0 24 24">
  <defs>
    <style>
      .cls-1 {
        fill: #b78083;
      }

      .cls-1, .cls-2, .cls-3, .cls-4, .cls-5 {
        stroke-width: 0px;
      }

      .cls-2 {
        fill: #b03e43;
      }

      .cls-3 {
        fill: #4b638b;
      }

      .cls-6 {
        fill: none;
        stroke: #231815;
        stroke-miterlimit: 10;
        stroke-width: 27px;
      }

      .cls-4 {
        fill: #ad5d62;
      }

      .cls-5 {
        fill: #9e9e9f;
      }
    </style>
  </defs>
  <path class="cls-3" d="M12,23.4c-4.1,0-8-2.2-10-5.9l2.6-1.5c1.5,2.7,4.3,4.3,7.4,4.3,4.7,0,8.5-3.8,8.5-8.5s-2.5-7.1-6.1-8.1l.8-2.9c4.9,1.4,8.3,5.9,8.3,11s-5.1,11.4-11.4,11.4Z"/>
  <path class="cls-6" d="M14.7,2.4"/>
  <path class="cls-6" d="M13.3,2.1"/>
  <path class="cls-5" d="M7.3,5l-1.7-2.5c1.9-1.3,4.1-1.9,6.3-1.9s1,0,1.4,0l-.4,3c-.4,0-.7,0-1.1,0-1.7,0-3.3.5-4.7,1.4Z"/>
  <path class="cls-1" d="M4.3,8.5l-2.7-1.2c.7-1.6,1.8-3,3.2-4.1l1.9,2.3c-1,.8-1.8,1.9-2.4,3.1Z"/>
  <path class="cls-6" d="M2.9,7.9"/>
  <path class="cls-6" d="M2.5,9.1"/>
  <path class="cls-4" d="M.6,12.9c0-.3,0-.6,0-.9,0-1.1.2-2.2.5-3.3l2.9.9c-.2.8-.4,1.6-.4,2.4s0,.4,0,.7l-3,.2Z"/>
  <path class="cls-2" d="M1.5,16.5c-.3-.8-.6-1.6-.7-2.4l2.9-.5c.1.6.3,1.2.5,1.8l-2.7,1.2Z"/>
</svg>