<?xml version="1.0" encoding="UTF-8"?>
<svg id="_图层_1" data-name="图层 1" xmlns="http://www.w3.org/2000/svg" version="1.1" xmlns:xlink="http://www.w3.org/1999/xlink" viewBox="0 0 24 24">
  <defs>
    <style>
      .cls-1 {
        fill: #41cd52;
      }

      .cls-1, .cls-2 {
        stroke-width: 0px;
      }

      .cls-2 {
        fill: url(#_未命名的渐变_3);
      }
    </style>
    <linearGradient id="_未命名的渐变_3" data-name="未命名的渐变 3" x1="0" y1="9" x2="17.8" y2="9" gradientUnits="userSpaceOnUse">
      <stop offset="0" stop-color="#9fbbd5"/>
      <stop offset="1" stop-color="#3a486e"/>
    </linearGradient>
  </defs>
  <path class="cls-2" d="M6.3,2.7L11.9.1l5.9,3.1v5.9c0,1.3-1.3,2.6-2.6,2.6h-6.7c-1.2,0-3,1.2-3,3v3.2h-2L0,11.9l3.8-5.6h8.1v-.9h-5.8s0-2.7,0-2.7Z"/>
  <path class="cls-1" d="M17.7,21.3l-5.6,2.6-5.9-3.1v-5.9c0-1.3,1.3-2.6,2.6-2.6h6.7c1.2,0,3-1.2,3-3v-3.2h2l3.4,6-3.8,5.6h-8.1v.9h5.8s0,2.7,0,2.7Z"/>
</svg>